<?xml version="1.0" encoding="utf-8"?>
<!-- Generator: Adobe Illustrator 16.0.4, SVG Export Plug-In . SVG Version: 6.00 Build 0)  -->
<!DOCTYPE svg PUBLIC "-//W3C//DTD SVG 1.1//EN" "http://www.w3.org/Graphics/SVG/1.1/DTD/svg11.dtd">
<svg version="1.1" id="Layer_1" xmlns="http://www.w3.org/2000/svg" xmlns:xlink="http://www.w3.org/1999/xlink" x="0px" y="0px"
	 width="50px" height="50px" viewBox="0 0 50 50" enable-background="new 0 0 50 50" xml:space="preserve">
<g>
	<g>
		<g>
			<polygon fill-rule="evenodd" clip-rule="evenodd" fill="#BBBDBF" points="39.01,35.837 23.809,35.837 23.068,34.17 39.01,34.17 
							"/>
			<polygon fill-rule="evenodd" clip-rule="evenodd" fill="#BBBDBF" points="31.311,30.831 21.579,30.831 20.91,29.163 
				31.311,29.163 			"/>
			<rect x="20.309" y="24.165" fill-rule="evenodd" clip-rule="evenodd" fill="#BBBDBF" width="14.298" height="1.667"/>
			<rect x="20.309" y="19.169" fill-rule="evenodd" clip-rule="evenodd" fill="#BBBDBF" width="19.797" height="1.665"/>
			<rect x="20.309" y="14.171" fill-rule="evenodd" clip-rule="evenodd" fill="#BBBDBF" width="11.002" height="1.665"/>
			<g>
				<polygon fill-rule="evenodd" clip-rule="evenodd" fill="#BBBDBF" points="10.414,0 10.414,17.661 15.361,22.41 15.361,5.006 
					45.053,5.006 45.053,44.996 15.361,44.996 15.361,35.551 13.262,34.677 10.414,32.121 10.414,50 50,50 50,0 				"/>
				<g>
					<path fill-rule="evenodd" clip-rule="evenodd" fill="#BBBDBF" d="M6.407,26.221l7.314,7.315c0,0,0.59-0.629,0.519-2.254
						c0.728-0.347,1.589-0.675,2.472-2.569c1.526,0.078,2.388-0.664,2.388-0.664l-7.306-7.323c-0.995,0.091-2.237,0.845-3.408,2.039
						C6.784,24.399,6.47,25.766,6.407,26.221z"/>
					<path fill-rule="evenodd" clip-rule="evenodd" fill="#BBBDBF" d="M1.18,15.637c-1.743,2.148-1.233,3.634-0.51,4.39
						c0.251,0.262,0.912,1.092,1.396,1.701c0.042-0.685,0.335-2.06,1.811-3.568c1.473-1.5,2.731-1.787,3.43-1.804
						c-0.652-0.509-1.673-1.31-1.798-1.435C4.676,14.095,2.92,13.488,1.18,15.637z"/>
					<path fill-rule="evenodd" clip-rule="evenodd" fill="#BBBDBF" d="M15.11,32.354c0.004,1.449-0.318,1.786-0.318,1.786
						l8.348,3.37l-3.455-8.403c0,0-1.305,0.668-2.003,0.65C17.498,30.345,16.569,31.885,15.11,32.354z"/>
					<path fill-rule="evenodd" clip-rule="evenodd" fill="#BBBDBF" d="M2.865,22.674l0.815,0.832c0,0,0.255-1.593,2.107-3.479
						c1.163-1.185,2.393-1.823,3.254-1.939l-0.786-0.796c0,0-1.422-0.277-3.45,1.77C2.815,21.073,2.865,22.674,2.865,22.674z"/>
					<path fill-rule="evenodd" clip-rule="evenodd" fill="#BBBDBF" d="M4.693,24.245l0.777,0.796c0,0,0.242-1.525,2.02-3.329
						c1.112-1.135,2.288-1.748,3.111-1.859l-0.752-0.76c0,0-1.363-0.265-3.3,1.694C4.643,22.712,4.693,24.245,4.693,24.245z"/>
				</g>
			</g>
		</g>
	</g>
</g>
</svg>
