<?xml version="1.0" encoding="utf-8"?>
<!-- Generator: Adobe Illustrator 16.0.4, SVG Export Plug-In . SVG Version: 6.00 Build 0)  -->
<!DOCTYPE svg PUBLIC "-//W3C//DTD SVG 1.1//EN" "http://www.w3.org/Graphics/SVG/1.1/DTD/svg11.dtd">
<svg version="1.1" id="Layer_1" xmlns="http://www.w3.org/2000/svg" xmlns:xlink="http://www.w3.org/1999/xlink" x="0px" y="0px"
	 width="50px" height="50px" viewBox="0 0 50 50" enable-background="new 0 0 50 50" xml:space="preserve">
<path fill="#BBBDBF" d="M25,8.82c-13.785,0-25,9.235-25,20.59C0,40.764,11.215,50,25,50s25-9.236,25-20.59
	C50,18.056,38.785,8.82,25,8.82z M34.363,21.321c0,3.418-2.295,6.188-5.127,6.188c-2.83,0-5.125-2.771-5.125-6.188
	c0-3.419,2.295-6.189,5.125-6.189C32.068,15.132,34.363,17.902,34.363,21.321z M25,45.588c-11.77,0-21.346-7.256-21.346-16.178
	c0-6.056,4.42-11.338,10.938-14.111c-2.354,3.062-3.806,7.152-3.806,11.659c0,9.477,6.364,17.159,14.214,17.159
	s14.213-7.683,14.213-17.159c0-4.507-1.451-8.597-3.807-11.659c6.518,2.771,10.939,8.056,10.939,14.111
	C46.346,38.332,36.77,45.588,25,45.588z"/>
</svg>
