<?xml version="1.0" encoding="utf-8"?>
<!-- Generator: Adobe Illustrator 16.0.4, SVG Export Plug-In . SVG Version: 6.00 Build 0)  -->
<!DOCTYPE svg PUBLIC "-//W3C//DTD SVG 1.1//EN" "http://www.w3.org/Graphics/SVG/1.1/DTD/svg11.dtd">
<svg version="1.1" id="Layer_1" xmlns="http://www.w3.org/2000/svg" xmlns:xlink="http://www.w3.org/1999/xlink" x="0px" y="0px"
	 width="50px" height="50px" viewBox="0 0 50 50" enable-background="new 0 0 50 50" xml:space="preserve">
<g>
	<polygon fill="#BBBDBF" points="1.322,50 9.091,50 9.091,36.98 	"/>
	<polygon fill="#BBBDBF" points="0,27.588 0,34.406 0,34.406 0,48.766 8.569,34.406 8.57,34.406 9.091,33.523 9.091,27.588 	"/>
	<g>
		<polygon fill="#BBBDBF" points="13.11,26.797 19.315,40.564 19.318,40.562 19.318,14.241 10.228,14.241 10.228,31.627 		"/>
		<polygon fill="#BBBDBF" points="18.806,43.736 12.891,30.613 10.228,35.076 10.228,50 19.318,50 19.318,43.178 		"/>
	</g>
	<g>
		<polygon fill="#BBBDBF" points="23.361,36.152 26.861,41.752 29.545,35.371 29.545,22.76 20.455,22.76 20.455,39.322 		"/>
		<polygon fill="#BBBDBF" points="27.168,45.58 23.093,39.061 20.455,41.939 20.455,50 29.545,50 29.545,39.93 		"/>
	</g>
	<g>
		<polygon fill="#BBBDBF" points="36.945,22.338 30.682,37.229 30.682,50 39.772,50 39.772,31.064 		"/>
		<polygon fill="#BBBDBF" points="37.16,17.269 39.772,25.331 39.772,8.82 30.682,8.82 30.682,32.67 		"/>
	</g>
	<g>
		<polygon fill="#BBBDBF" points="44.04,38.5 50,31.664 50,16.224 40.909,16.224 40.909,28.838 		"/>
		<polygon fill="#BBBDBF" points="43.321,42.016 40.909,34.572 40.909,50 50,50 50,34.354 		"/>
	</g>
</g>
</svg>
